<?xml version="1.0" standalone="no"?>
<!DOCTYPE svg PUBLIC "-//W3C//DTD SVG 20010904//EN"
 "http://www.w3.org/TR/2001/REC-SVG-20010904/DTD/svg10.dtd">
<svg version="1.0" xmlns="http://www.w3.org/2000/svg"
 width="512.000000pt" height="512.000000pt" viewBox="0 0 512.000000 512.000000"
 preserveAspectRatio="xMidYMid meet">

<g transform="translate(0.000000,512.000000) scale(0.100000,-0.100000)"
fill="#000000" stroke="none">
<path d="M2565 5106 c-117 -37 -199 -122 -228 -235 l-14 -54 -99 -23 c-177
-39 -340 -106 -490 -200 -75 -46 -84 -57 -84 -104 0 -30 39 -70 68 -70 8 0 57
25 108 55 139 83 270 137 412 170 99 23 103 22 135 -40 60 -114 184 -196 310
-203 83 -5 107 10 107 68 0 50 -22 67 -100 79 -72 12 -126 44 -169 100 l-26
34 135 -6 c356 -16 650 -145 901 -396 193 -193 300 -387 356 -643 22 -102 25
-371 5 -463 -93 -430 -383 -738 -832 -885 -178 -58 -284 -74 -500 -74 -216 0
-322 16 -500 74 -449 147 -739 455 -832 885 -20 93 -17 361 6 465 39 181 116
350 232 507 35 48 64 98 64 111 0 31 -43 72 -76 72 -34 0 -83 -50 -158 -163
-52 -78 -146 -261 -146 -284 0 -6 -29 -13 -65 -17 -226 -23 -405 -171 -461
-381 -18 -65 -18 -196 0 -261 60 -225 271 -384 511 -384 51 0 51 0 74 -47 73
-151 225 -321 400 -450 2 -2 -14 -40 -36 -85 -23 -46 -52 -112 -64 -148 -14
-38 -35 -74 -50 -87 -46 -39 -61 -94 -66 -248 -9 -237 21 -545 74 -770 125
-533 402 -862 818 -972 90 -24 118 -26 275 -26 158 0 185 2 275 26 128 34 258
97 361 175 104 79 123 116 83 166 -34 44 -72 36 -159 -35 -90 -72 -205 -130
-320 -160 -114 -31 -336 -33 -453 -6 -267 63 -475 235 -610 504 l-26 51 42 35
c289 236 751 499 1157 660 235 93 609 204 643 191 24 -9 26 -23 16 -150 -24
-315 -81 -560 -181 -776 -27 -60 -29 -71 -18 -97 15 -38 61 -58 95 -43 47 22
137 239 188 457 32 134 54 288 66 457 10 135 4 181 -30 230 -13 18 -19 43 -19
81 0 147 -45 329 -117 475 -25 51 -44 94 -42 95 67 49 151 122 208 182 72 76
174 221 200 283 13 30 16 32 65 32 196 0 378 105 465 269 45 84 61 149 61 247
0 270 -197 482 -475 510 -38 4 -65 11 -65 18 0 6 -24 61 -54 121 -89 182 -207
333 -360 462 -270 228 -574 346 -928 360 -82 3 -148 8 -148 10 0 2 6 16 14 31
30 57 101 102 163 102 32 0 73 42 73 75 0 14 -11 37 -25 50 -27 28 -74 32
-140 11z m-1473 -1406 c-44 -190 -39 -478 12 -645 9 -27 16 -54 16 -59 0 -14
-92 4 -153 31 -75 34 -157 121 -186 198 -28 75 -28 185 0 259 37 100 142 194
248 222 51 14 67 12 63 -6z m3065 -21 c78 -37 154 -118 182 -194 28 -75 28
-185 0 -260 -29 -77 -111 -164 -186 -198 -56 -25 -153 -46 -153 -33 0 3 9 37
19 76 44 158 52 419 18 578 -8 34 -12 64 -9 67 9 9 69 -8 129 -36z m-2114
-1543 c416 -121 852 -95 1228 73 l110 49 43 -91 c47 -98 81 -220 92 -329 l7
-67 -39 -10 c-204 -52 -296 -79 -443 -130 l-170 -59 -173 88 c-280 143 -607
274 -908 365 -69 20 -128 40 -132 44 -4 4 12 48 37 98 l45 91 109 -49 c60 -27
147 -60 194 -73z m-359 -236 c241 -67 601 -205 862 -330 l148 -70 -200 -99
c-279 -139 -613 -344 -792 -489 -24 -19 -45 -33 -47 -31 -9 10 -67 266 -80
357 -23 159 -38 394 -33 536 4 111 7 131 24 143 10 7 23 12 29 9 6 -2 46 -14
89 -26z"/>
<path d="M2987 1940 c-50 -39 -52 -101 -5 -134 33 -23 53 -20 93 15 43 38 48
84 12 117 -29 27 -67 28 -100 2z"/>
<path d="M1843 1590 c-51 -21 -56 -84 -11 -136 56 -64 118 -74 154 -26 31 40
-2 112 -70 153 -34 21 -41 22 -73 9z"/>
<path d="M1776 3459 c-41 -33 -36 -78 15 -124 55 -49 99 -66 174 -67 110 -1
215 66 215 136 0 41 -31 76 -68 76 -13 0 -42 -13 -65 -29 -63 -45 -107 -45
-162 -1 -44 35 -73 38 -109 9z"/>
<path d="M2968 3466 c-92 -69 31 -199 188 -198 74 1 118 18 173 67 51 46 56
91 15 124 -36 29 -65 26 -109 -9 -55 -44 -99 -44 -162 1 -44 31 -78 36 -105
15z"/>
<path d="M2514 3314 c-58 -28 -81 -103 -49 -164 17 -32 61 -60 95 -60 34 0 78
28 95 60 32 62 9 136 -51 165 -40 19 -51 19 -90 -1z"/>
<path d="M3125 1271 c-47 -28 -85 -79 -85 -112 0 -39 32 -69 74 -69 27 0 42 9
80 50 60 64 60 106 -1 138 -29 16 -33 15 -68 -7z"/>
<path d="M2285 802 c-40 -25 -83 -77 -91 -109 -10 -38 24 -77 70 -81 33 -3 43
2 87 46 37 37 49 56 49 79 0 64 -62 98 -115 65z"/>
<path d="M2893 810 c-27 -11 -43 -40 -43 -76 0 -19 14 -41 49 -75 39 -40 55
-49 83 -49 39 0 63 20 73 62 6 24 0 35 -46 82 -58 58 -81 70 -116 56z"/>
</g>
</svg>
