<?xml version="1.0" standalone="no"?>
<!DOCTYPE svg PUBLIC "-//W3C//DTD SVG 20010904//EN"
 "http://www.w3.org/TR/2001/REC-SVG-20010904/DTD/svg10.dtd">
<svg version="1.0" xmlns="http://www.w3.org/2000/svg"
 width="512.000000pt" height="512.000000pt" viewBox="0 0 512.000000 512.000000"
 preserveAspectRatio="xMidYMid meet">

<g transform="translate(0.000000,512.000000) scale(0.100000,-0.100000)"
fill="#000000" stroke="none">
<path d="M3436 5110 c-165 -26 -371 -112 -496 -208 -286 -217 -450 -556 -438
-904 l3 -96 -792 -864 -791 -863 35 -37 c20 -20 33 -43 30 -50 -3 -7 -92 -107
-197 -222 l-192 -209 90 -91 91 -91 -92 -95 c-51 -52 -110 -122 -131 -154
-164 -248 -167 -575 -6 -820 49 -76 217 -243 291 -289 241 -152 554 -154 793
-5 31 19 405 384 941 918 575 574 907 897 938 915 102 59 229 79 336 54 108
-25 236 -118 301 -219 88 -138 94 -328 13 -470 -14 -25 -120 -140 -234 -255
l-209 -211 105 -104 105 -105 206 205 c224 224 254 260 308 367 94 186 100
432 16 627 -55 130 -204 296 -330 370 -240 141 -531 139 -778 -5 -42 -25 -289
-265 -952 -925 -544 -542 -913 -902 -940 -917 -129 -74 -313 -74 -440 0 -59
35 -182 154 -221 215 -85 132 -91 306 -17 453 12 22 64 84 116 138 l96 97 117
-116 117 -117 212 194 c116 107 216 196 221 198 6 2 27 -13 47 -32 l37 -35
860 787 860 788 155 6 c114 4 177 11 240 27 511 134 854 598 827 1119 -14 279
-130 534 -330 728 -205 199 -444 300 -727 308 -74 2 -162 0 -194 -5z m306
-304 c366 -71 629 -373 646 -742 5 -126 -11 -229 -54 -335 -29 -70 -72 -149
-82 -149 -11 0 -1107 1099 -1102 1104 3 2 28 17 55 33 153 90 357 123 537 89z
m281 -1455 c-38 -29 -166 -82 -245 -101 -54 -13 -118 -20 -183 -20 l-100 0
-349 349 -349 349 5 123 c4 105 10 139 37 219 18 52 46 119 63 148 l31 54 553
-553 c504 -503 553 -555 537 -568z m-1086 17 c145 -145 263 -266 263 -270 0
-10 -1438 -1328 -1448 -1328 -4 0 -99 92 -212 205 l-204 204 20 23 c78 91
1307 1428 1312 1428 4 0 125 -118 269 -262z m-1602 -1608 l120 -120 -84 -78
c-47 -42 -95 -86 -109 -96 l-24 -19 -109 109 c-60 60 -108 112 -107 116 4 11
182 208 188 208 3 0 59 -54 125 -120z"/>
<path d="M2450 3095 l-105 -105 108 -108 107 -107 105 105 105 105 -108 108
-107 107 -105 -105z"/>
</g>
</svg>
