<?xml version="1.0" standalone="no"?>
<!DOCTYPE svg PUBLIC "-//W3C//DTD SVG 20010904//EN"
 "http://www.w3.org/TR/2001/REC-SVG-20010904/DTD/svg10.dtd">
<svg version="1.0" xmlns="http://www.w3.org/2000/svg"
 width="512.000000pt" height="512.000000pt" viewBox="0 0 512.000000 512.000000"
 preserveAspectRatio="xMidYMid meet">

<g transform="translate(0.000000,512.000000) scale(0.100000,-0.100000)"
fill="#000000" stroke="none">
<path d="M960 4667 c-49 -16 -133 -102 -148 -153 -9 -31 -12 -229 -12 -777 l0
-735 -202 -4 -203 -3 -63 -34 c-70 -38 -100 -69 -140 -145 l-27 -51 0 -1011 0
-1010 37 -76 c45 -91 103 -147 196 -191 l67 -32 2130 0 2130 0 63 34 c70 38
100 69 140 145 l27 51 3 1895 c2 1433 0 1905 -9 1938 -17 61 -87 136 -146 156
-42 14 -233 16 -1927 15 -1341 -1 -1891 -4 -1916 -12z m3816 -172 l24 -24 -2
-1885 -3 -1885 -21 -27 c-11 -15 -33 -37 -48 -48 l-27 -21 -1908 -3 -1907 -2
35 72 36 72 5 1869 5 1869 24 19 c23 19 67 19 1893 19 l1869 0 25 -25z m-3976
-2677 c0 -1008 -1 -1024 -21 -1068 -43 -95 -117 -144 -219 -144 -102 0 -176
49 -219 144 -20 44 -21 61 -21 1002 0 654 3 966 11 985 6 15 20 39 32 52 41
44 70 50 260 51 l177 0 0 -1022z"/>
<path d="M2560 4347 c-49 -16 -133 -102 -148 -153 -17 -59 -17 -1369 0 -1428
16 -55 99 -138 154 -154 31 -9 267 -12 956 -12 1038 0 975 -5 1051 80 24 26
49 66 55 88 17 56 17 1368 0 1424 -6 22 -31 62 -55 88 -76 85 -12 80 -1057 79
-641 -1 -932 -4 -956 -12z m1895 -172 l25 -24 0 -671 0 -671 -25 -24 -24 -25
-911 0 -911 0 -24 25 -25 24 0 671 0 671 25 24 24 25 911 0 911 0 24 -25z"/>
<path d="M3950 3940 c-29 -29 -34 -63 -16 -99 15 -29 30 -37 84 -43 19 -3 -22
-47 -238 -263 l-260 -259 -143 142 c-128 126 -147 142 -177 142 -31 0 -54 -20
-251 -216 -125 -125 -220 -228 -224 -242 -14 -56 43 -113 97 -97 13 4 103 86
200 183 l178 176 143 -142 c128 -126 147 -142 177 -142 31 0 59 25 337 302
296 295 303 302 303 268 1 -81 86 -116 140 -58 18 20 20 35 20 161 0 206 0
206 -202 207 -134 0 -150 -2 -168 -20z"/>
<path d="M1159 4110 c-9 -5 -22 -23 -29 -40 -15 -35 0 -84 31 -100 11 -6 219
-10 524 -10 l506 0 24 25 c16 15 25 36 25 55 0 19 -9 40 -25 55 l-24 25 -508
0 c-301 0 -515 -4 -524 -10z"/>
<path d="M1159 3710 c-9 -5 -22 -23 -29 -40 -15 -35 0 -84 31 -100 11 -6 219
-10 524 -10 l506 0 24 25 c16 15 25 36 25 55 0 19 -9 40 -25 55 l-24 25 -508
0 c-301 0 -515 -4 -524 -10z"/>
<path d="M1159 3310 c-9 -5 -22 -23 -29 -40 -15 -35 0 -84 31 -100 11 -6 219
-10 524 -10 l506 0 24 25 c16 15 25 36 25 55 0 19 -9 40 -25 55 l-24 25 -508
0 c-301 0 -515 -4 -524 -10z"/>
<path d="M1159 2910 c-9 -5 -22 -23 -29 -40 -15 -35 0 -84 31 -100 11 -6 219
-10 524 -10 l506 0 24 25 c16 15 25 36 25 55 0 19 -9 40 -25 55 l-24 25 -508
0 c-301 0 -515 -4 -524 -10z"/>
<path d="M1280 2347 c-49 -16 -133 -102 -148 -153 -17 -59 -17 -1209 0 -1268
16 -55 99 -138 154 -154 30 -9 198 -12 636 -12 680 0 657 -2 731 80 24 26 49
66 55 88 17 56 17 1208 0 1264 -6 22 -31 62 -55 88 -74 83 -50 80 -737 79
-408 -1 -612 -5 -636 -12z m1255 -172 l25 -24 0 -591 0 -591 -25 -24 -24 -25
-591 0 -591 0 -24 25 -25 24 0 591 0 591 25 24 24 25 591 0 591 0 24 -25z"/>
<path d="M1801 2024 c-253 -68 -410 -331 -346 -579 67 -256 329 -415 580 -350
240 63 397 300 357 538 -48 280 -324 463 -591 391z m39 -326 l0 -171 120 -122
121 -122 -43 -19 c-30 -13 -64 -19 -118 -19 -96 1 -162 29 -225 96 -65 70 -88
127 -89 219 0 91 29 164 92 225 36 34 114 83 135 85 4 0 7 -77 7 -172z m238
138 c45 -23 117 -108 138 -161 25 -65 25 -164 0 -229 l-18 -48 -99 98 -99 99
0 137 0 138 25 -10 c14 -5 38 -16 53 -24z"/>
<path d="M3002 2273 c-21 -8 -44 -63 -38 -89 4 -13 16 -33 28 -44 21 -20 32
-20 767 -20 571 1 750 3 762 13 44 34 47 89 7 127 -21 20 -32 20 -767 19 -410
0 -752 -3 -759 -6z"/>
<path d="M3002 1953 c-21 -8 -44 -63 -38 -89 4 -13 16 -33 28 -44 21 -20 32
-20 767 -20 571 1 750 3 762 13 44 34 47 89 7 127 -21 20 -32 20 -767 19 -410
0 -752 -3 -759 -6z"/>
<path d="M3002 1633 c-21 -8 -44 -63 -38 -89 4 -13 16 -33 28 -44 21 -20 32
-20 767 -20 571 1 750 3 762 13 44 34 47 89 7 127 -21 20 -32 20 -767 19 -410
0 -752 -3 -759 -6z"/>
<path d="M3002 1313 c-21 -8 -44 -63 -38 -89 4 -13 16 -33 28 -44 21 -20 32
-20 767 -20 571 1 750 3 762 13 44 34 47 89 7 127 -21 20 -32 20 -767 19 -410
0 -752 -3 -759 -6z"/>
</g>
</svg>
