<?xml version="1.0" standalone="no"?>
<!DOCTYPE svg PUBLIC "-//W3C//DTD SVG 20010904//EN"
 "http://www.w3.org/TR/2001/REC-SVG-20010904/DTD/svg10.dtd">
<svg version="1.0" xmlns="http://www.w3.org/2000/svg"
 width="300.000000pt" height="160.000000pt" viewBox="0 0 300.000000 160.000000"
 preserveAspectRatio="xMidYMid meet">
<metadata>
Created by potrace 1.10, written by Peter Selinger 2001-2011
</metadata>
<g transform="translate(0.000000,160.000000) scale(0.100000,-0.100000)"
fill="#000000" stroke="none">
<path d="M0 1584 c0 -10 6 -14 15 -10 17 6 35 -22 35 -53 0 -16 -6 -21 -25
-21 -29 0 -34 -15 -5 -17 20 -2 60 40 60 61 -1 38 -80 78 -80 40z"/>
<path d="M472 1573 c-1 -18 -5 -32 -9 -32 -5 1 -24 0 -43 -1 -33 -3 -33 -3 10
-9 58 -8 765 -2 757 6 -6 6 -340 17 -387 12 -42 -4 -92 -3 -158 4 -35 3 -85 2
-112 -2 l-49 -8 -4 31 -4 31 -1 -32z"/>
<path d="M2012 1594 c4 -3 14 -7 25 -8 11 -2 19 -13 21 -29 l3 -27 267 0 c170
0 272 4 282 11 12 8 10 9 -7 4 -12 -3 -31 -1 -43 5 -15 8 -20 8 -21 -2 -1 -7
-5 3 -9 22 -6 31 -8 32 -9 8 l-1 -27 -92 4 c-51 3 -150 5 -219 5 -118 0 -127
1 -132 20 -4 15 -14 20 -38 20 -18 0 -30 -3 -27 -6z"/>
<path d="M1747 1583 c-13 -13 -7 -53 8 -53 8 0 15 6 15 14 0 8 3 21 6 30 6 16
-16 23 -29 9z"/>
<path d="M1919 1586 c-1 -3 -3 -10 -4 -16 -1 -5 -3 -14 -4 -19 0 -5 -17 -9
-37 -8 -20 1 -32 3 -25 5 6 2 11 7 11 11 0 15 -25 6 -50 -17 l-24 -23 102 3
102 3 0 28 c0 20 -5 27 -19 27 -11 0 -26 3 -35 6 -9 3 -17 3 -17 0z"/>
<path d="M2012 1549 c1 -13 11 -25 20 -27 15 -3 16 1 9 19 -11 32 -34 38 -29
8z"/>
<path d="M2703 1552 c-88 -7 -38 -19 84 -21 70 -1 125 1 121 4 -3 4 -12 7 -20
9 -7 1 -18 4 -23 8 -10 6 -79 6 -162 0z"/>
<path d="M232 1500 c2 -7 25 -14 51 -16 27 -2 52 -6 58 -9 14 -9 -1 -197 -17
-216 -18 -20 -18 -60 -1 -83 18 -25 10 -66 -13 -66 -10 0 -27 -3 -37 -7 -13
-6 -8 -9 22 -13 27 -3 41 -10 43 -22 3 -15 -4 -18 -40 -18 -31 0 -39 -3 -28
-10 8 -5 25 -10 38 -10 12 0 23 -6 23 -12 3 -22 -1 -111 -7 -180 l-6 -68 -84
0 c-55 0 -84 -4 -84 -11 0 -7 -4 -8 -12 -2 -17 12 -138 4 -138 -9 0 -7 51 -8
160 -3 l160 7 -6 -126 c-5 -86 -4 -126 4 -126 6 0 13 43 16 108 4 59 8 136 11
172 2 36 5 77 5 92 0 24 3 27 28 23 15 -3 69 -7 120 -9 52 -2 96 -7 99 -9 3
-3 0 -54 -5 -114 -13 -150 -15 -280 -3 -287 5 -4 12 49 16 134 l8 140 63 0
c35 0 64 4 64 8 0 4 -30 8 -66 7 l-65 0 5 29 c3 16 6 43 6 61 l0 32 65 -1 65
-1 2 -65 2 -65 3 57 4 57 127 -5 c70 -3 161 -9 202 -14 66 -7 78 -6 100 11 67
51 69 52 168 54 76 2 84 1 37 -4 l-60 -7 68 -4 c37 -3 67 -2 67 3 0 4 26 6 58
5 l57 -1 -50 -8 c-37 -5 -24 -7 50 -4 59 1 90 0 75 -5 -24 -8 -24 -8 -2 -9 12
-1 22 -7 22 -16 0 -8 6 -15 13 -16 6 -1 1 -4 -13 -8 -20 -6 -11 -9 40 -16 36
-4 74 -9 85 -10 80 -10 248 -25 340 -30 61 -4 117 -8 125 -10 15 -4 83 -10
250 -21 52 -3 98 -9 102 -12 4 -4 9 -38 11 -77 l3 -70 2 78 c1 43 6 77 12 77
9 0 17 -129 11 -170 -1 -8 -6 -40 -11 -70 -6 -40 -6 -57 3 -62 18 -11 -13 -10
-174 8 -79 9 -158 14 -176 12 -18 -2 -34 -1 -35 3 -3 6 -205 29 -675 75 -95
10 -173 21 -173 26 0 11 63 49 75 45 6 -2 12 -12 13 -21 3 -14 -1 -16 -17 -11
-11 3 -28 2 -37 -3 -11 -6 3 -9 47 -11 35 -1 72 -4 82 -7 13 -4 17 0 16 18 0
13 -3 17 -6 11 -8 -21 -31 -15 -63 16 -23 22 -38 27 -62 25 -20 -3 -38 2 -50
13 -23 20 -23 30 0 37 22 7 23 57 4 94 -24 43 -82 21 -86 -33 0 -16 -6 -23
-13 -20 -7 2 -13 0 -13 -5 0 -6 9 -10 20 -10 23 0 24 -10 9 -77 -11 -48 -13
-49 -50 -52 -27 -1 -39 2 -39 11 0 16 38 41 50 33 6 -4 10 -1 10 5 0 6 5 8 10
5 6 -3 10 -2 10 4 0 17 -22 24 -31 10 -5 -8 -9 -10 -9 -6 0 5 -13 -1 -30 -13
-16 -12 -38 -19 -47 -16 -10 2 -58 8 -108 11 -49 3 -103 8 -118 11 -16 2 -26
0 -23 -5 3 -5 54 -12 113 -16 102 -6 165 -23 180 -48 3 -6 1 -7 -5 -3 -16 10
-15 -17 0 -32 9 -9 5 -12 -20 -12 -29 0 -32 2 -22 19 23 43 14 51 -52 49 l-63
-2 58 -3 c58 -4 63 -7 48 -32 -8 -12 -12 -12 -25 -2 -8 7 -30 11 -48 9 -33 -4
-33 -4 15 -17 26 -8 46 -15 44 -17 -1 -2 -48 4 -102 13 -55 9 -119 17 -142 16
-36 0 -42 3 -48 24 -3 14 -9 23 -12 19 -9 -8 -34 14 -27 25 10 17 32 9 38 -14
4 -19 13 -22 63 -25 32 -2 60 -7 61 -13 6 -17 47 -9 60 11 12 19 9 20 -45 22
-32 1 -73 2 -91 1 -33 0 -34 1 -30 33 4 38 3 40 -18 19 -24 -24 -42 -19 -36
11 4 22 8 25 30 19 22 -5 24 -4 12 10 -7 8 -15 13 -18 11 -3 -3 -19 5 -36 17
-37 26 -76 30 -77 7 0 -10 -3 -9 -8 5 -7 16 -9 14 -14 -14 -12 -56 -10 -61 27
-61 31 0 34 -3 40 -40 4 -29 11 -40 24 -40 9 0 26 -8 37 -17 20 -15 20 -15 -2
-10 -13 3 -25 2 -28 -2 -2 -5 -26 -6 -52 -4 -26 3 -64 1 -83 -4 -34 -9 -33
-10 32 -17 37 -4 76 -5 87 -1 10 3 25 0 32 -7 14 -13 94 -17 106 -5 3 4 -15 7
-42 7 -27 0 -46 3 -42 6 3 4 82 0 174 -7 92 -7 185 -13 206 -14 22 0 42 -6 47
-15 7 -10 10 -11 10 -2 0 7 10 16 22 21 18 7 14 8 -21 8 -47 0 -79 25 -39 31
11 2 24 -1 28 -8 4 -6 11 -10 16 -9 40 7 45 0 42 -63 -3 -57 -5 -63 -28 -68
-17 -5 3 -10 65 -19 116 -15 176 -32 85 -24 -94 9 -103 9 -106 -2 -10 -30 134
-78 162 -54 16 13 35 67 26 73 -4 2 -44 7 -90 11 -78 7 -82 8 -76 29 4 11 8
22 9 24 1 1 33 -2 71 -8 71 -10 151 -13 143 -6 -2 3 -53 10 -112 17 -87 9
-107 15 -103 26 4 8 6 28 6 44 0 25 3 29 23 24 12 -3 198 -23 412 -45 572 -58
684 -70 747 -79 32 -4 60 -5 63 -3 3 3 5 43 5 88 l0 84 30 -6 c23 -5 30 -3 30
10 0 11 -9 16 -30 16 l-30 0 0 73 c0 41 2 76 4 78 2 2 29 2 60 1 l56 -4 0 -85
c0 -78 -1 -84 -19 -78 -11 3 -21 0 -24 -9 -4 -10 1 -16 14 -18 19 -3 20 -12
22 -196 1 -105 -2 -192 -7 -192 -4 0 -6 9 -3 20 4 17 -4 23 -60 40 -90 28
-105 25 -51 -9 25 -16 48 -33 52 -39 3 -5 26 -15 51 -22 28 -8 42 -17 38 -24
-3 -6 -3 -8 0 -5 4 3 9 131 12 285 7 318 8 328 35 319 28 -9 116 5 99 16 -12
7 -11 9 1 10 8 1 19 1 24 0 5 -1 4 5 -3 13 -15 18 -5 40 15 32 8 -3 14 -1 14
3 0 5 -5 11 -10 13 -18 6 -24 118 -24 411 0 152 -3 277 -6 277 -10 0 -19 -153
-26 -469 l-7 -284 -86 7 c-355 26 -653 48 -868 63 l-253 17 0 31 c0 16 4 102
9 190 6 88 13 222 16 298 l7 137 -118 0 c-64 0 -115 -2 -112 -5 3 -3 51 -6
108 -7 l103 -2 -7 -135 c-7 -140 -34 -423 -41 -429 -2 -3 -109 2 -237 9 -223
13 -233 15 -230 34 9 67 12 121 16 303 2 112 6 205 8 207 2 1 17 7 33 13 29
10 28 10 -17 11 l-48 1 0 -62 c0 -169 -22 -553 -32 -559 -5 -4 -24 -3 -42 2
-17 4 -168 15 -336 24 -168 9 -338 18 -378 22 l-72 6 6 161 c3 100 2 156 -4
148 -5 -7 -7 -24 -4 -38 6 -33 -16 -31 -24 3 -6 20 -2 31 16 45 21 17 24 29
28 129 4 88 7 109 19 109 11 0 13 -6 8 -22 -4 -13 -9 -104 -10 -203 l-3 -180
8 135 c4 74 8 159 9 188 l1 52 390 0 390 0 2 -102 1 -103 7 85 c3 47 3 94 -1
106 -4 11 -3 28 3 37 8 16 -18 17 -399 17 -224 0 -443 3 -487 6 -57 4 -77 2
-74 -6z m1181 -741 c7 -26 -12 -59 -34 -59 -20 0 -29 28 -18 58 11 28 45 29
52 1z m-580 -77 c16 -20 18 -62 2 -62 -8 0 -15 13 -17 33 -2 17 -7 30 -12 29
-9 -4 -26 16 -26 30 0 14 35 13 39 -2 2 -8 8 -21 14 -28z m562 -22 c16 -18 16
-20 2 -20 -10 0 -17 8 -17 18 0 14 -2 15 -10 2 -17 -26 -11 -40 15 -40 14 0
25 -6 26 -12 0 -7 2 -23 3 -35 2 -13 -1 -23 -6 -23 -5 0 -6 -5 -2 -11 4 -7 -1
-9 -15 -5 -11 3 -30 9 -41 12 -16 4 -19 11 -14 32 25 111 28 116 59 82z"/>
<path d="M2575 1500 c2 -3 -176 -5 -395 -5 -354 0 -397 -2 -385 -15 10 -11 11
-20 4 -33 -6 -10 -15 -137 -21 -284 -8 -220 -7 -268 4 -279 10 -10 95 -19 308
-34 296 -20 397 -24 389 -15 -5 4 -601 45 -663 45 l-29 0 6 138 c4 75 10 203
13 285 l7 147 523 0 523 0 -4 -227 c-3 -126 -7 -265 -10 -310 -2 -45 0 -85 4
-88 11 -6 20 68 22 195 1 58 3 121 4 140 11 135 14 290 5 290 -15 0 -12 37 3
43 6 3 -61 6 -150 8 -88 2 -160 2 -158 -1z"/>
<path d="M2460 1415 c0 -8 7 -15 15 -15 8 0 15 4 15 9 0 5 12 12 28 14 19 3
14 4 -15 6 -32 1 -43 -3 -43 -14z"/>
<path d="M890 1364 c0 -32 2 -35 23 -28 12 4 27 6 32 5 69 -13 105 -12 105 2
0 9 3 22 6 31 9 22 -17 20 -61 -4 -20 -11 -34 -16 -30 -10 3 5 -3 10 -13 10
-11 0 -25 7 -32 15 -20 24 -30 17 -30 -21z"/>
<path d="M79 1339 c-1 -30 -3 -70 -5 -89 -12 -157 -16 -310 -7 -310 12 0 30
436 19 447 -3 4 -7 -18 -7 -48z"/>
<path d="M2460 1348 l0 -39 53 2 c28 0 79 -2 113 -5 l61 -7 1 40 c2 44 -4 49
-34 26 -10 -8 -30 -15 -44 -15 -15 0 -32 -6 -39 -12 -11 -11 -12 -10 -6 0 4 8
2 12 -6 11 -24 -4 -72 13 -59 21 7 5 2 9 -14 12 -24 5 -26 3 -26 -34z"/>
<path d="M480 1351 c0 -6 15 -9 34 -8 19 1 32 5 29 10 -6 10 -63 9 -63 -2z"/>
<path d="M610 1351 c0 -12 49 -18 80 -11 l25 6 -25 7 c-36 10 -80 9 -80 -2z"/>
<path d="M724 1349 c-3 -5 20 -9 51 -9 31 0 54 4 51 8 -7 12 -95 12 -102 1z"/>
<path d="M1910 1328 c0 -3 36 -8 80 -10 45 -2 79 1 77 6 -3 10 -157 15 -157 4z"/>
<path d="M2348 1335 c-2 -2 -31 -5 -66 -6 -34 -1 -62 -6 -62 -10 0 -10 149 -9
155 1 5 8 -20 22 -27 15z"/>
<path d="M2084 1323 c10 -11 126 -11 126 -1 0 4 -30 8 -67 8 -36 0 -63 -3 -59
-7z"/>
<path d="M882 1268 c-1 -41 1 -49 9 -35 5 9 16 17 24 17 9 0 11 7 7 22 -5 21
-6 21 -13 2 -7 -18 -8 -17 -8 4 -1 17 4 22 25 22 22 0 26 -4 22 -23 -3 -14 0
-24 7 -24 14 0 7 49 -9 59 -6 4 -23 8 -37 8 -24 0 -26 -3 -27 -52z"/>
<path d="M1040 1305 c0 -18 -17 -20 -22 -3 -3 8 -9 8 -24 -1 -15 -10 -15 -11
-1 -7 10 3 17 0 17 -9 0 -7 5 -17 12 -21 7 -4 8 -3 4 4 -4 7 -3 12 3 12 6 0
13 -11 17 -25 10 -39 21 -29 22 20 1 33 -3 45 -13 45 -8 0 -15 -7 -15 -15z"/>
<path d="M1910 1290 c0 -6 32 -9 85 -8 47 1 85 5 85 8 0 3 -38 6 -85 8 -53 1
-85 -1 -85 -8z"/>
<path d="M650 1281 c0 -4 27 -8 60 -9 33 0 60 3 60 8 0 4 -27 8 -60 8 -33 0
-60 -3 -60 -7z"/>
<path d="M2452 1226 c-1 -43 2 -55 8 -41 5 11 9 35 9 53 1 27 5 32 25 32 23 0
24 -3 21 -37 l-5 -38 11 32 c16 45 7 63 -34 61 l-34 -1 -1 -61z"/>
<path d="M2665 1267 c-17 -19 -20 -20 -23 -5 -3 14 -8 15 -30 7 -15 -6 -29
-10 -32 -9 -3 1 -6 -7 -7 -17 -2 -15 -1 -15 7 2 9 18 9 18 7 -5 -1 -16 6 -32
20 -42 25 -21 40 -24 24 -5 -6 8 -7 18 -3 22 4 5 2 5 -4 2 -16 -9 -28 25 -12
34 8 5 16 1 21 -14 6 -16 10 -18 16 -8 12 19 31 4 31 -25 0 -14 4 -22 10 -19
11 7 14 105 3 104 -5 0 -17 -10 -28 -22z"/>
<path d="M2542 1269 c3 -8 1 -24 -3 -36 -5 -13 -4 -25 1 -28 6 -4 10 0 10 7 0
9 3 9 10 -2 6 -9 10 -10 10 -3 0 6 -5 15 -10 18 -6 4 -8 15 -5 25 3 10 1 22
-6 26 -7 4 -10 2 -7 -7z"/>
<path d="M2144 1243 c10 -10 146 -12 152 -2 3 5 -32 9 -77 9 -45 0 -79 -3 -75
-7z"/>
<path d="M1172 1108 c1 -145 6 -132 10 30 2 56 0 102 -4 102 -5 0 -7 -60 -6
-132z"/>
<path d="M1910 1213 c0 -4 13 -9 28 -10 16 -1 34 -3 39 -5 6 -2 13 2 15 7 1 6
-16 11 -39 13 -24 2 -43 0 -43 -5z"/>
<path d="M2080 1210 c-8 -5 15 -10 58 -12 40 -1 71 1 69 6 -4 11 -110 17 -127
6z"/>
<path d="M878 1128 c-6 -86 -3 -102 12 -78 7 11 16 12 44 3 20 -6 36 -7 36 -2
0 10 31 12 54 3 9 -3 16 -15 16 -25 0 -10 4 -19 8 -19 5 0 8 14 8 32 l-1 31
-84 -2 c-74 -2 -83 0 -77 14 3 9 6 20 6 23 0 4 5 0 10 -8 8 -13 10 -13 10 2 0
9 3 24 6 33 4 10 2 15 -7 13 -7 -2 -15 5 -17 14 -2 13 1 16 15 12 16 -5 16 -4
-1 10 -11 9 -15 16 -9 16 7 0 15 -4 18 -10 3 -5 27 -7 53 -4 35 4 43 3 32 -5
-12 -9 -11 -11 8 -11 19 0 21 -2 10 -19 -9 -15 -19 -18 -45 -14 -27 5 -33 2
-33 -12 0 -14 6 -16 36 -11 19 4 42 10 50 13 8 3 14 0 14 -6 0 -6 -5 -11 -11
-11 -5 0 -7 -4 -4 -10 15 -25 25 -5 25 50 l0 60 -89 0 -88 0 -5 -82z"/>
<path d="M2223 1204 c10 -10 77 -12 83 -2 3 4 -16 8 -42 8 -26 0 -44 -3 -41
-6z"/>
<path d="M508 1183 c18 -2 45 -2 60 0 15 2 0 4 -33 4 -33 0 -45 -2 -27 -4z"/>
<path d="M508 1153 c18 -2 45 -2 60 0 15 2 0 4 -33 4 -33 0 -45 -2 -27 -4z"/>
<path d="M2449 1133 c-1 -16 -3 -44 -5 -63 -5 -45 1 -61 21 -54 8 3 12 10 9
15 -3 5 2 9 10 9 20 0 21 24 1 40 -26 21 -19 41 13 34 l27 -6 -30 21 c-16 11
-25 21 -20 21 6 0 20 -6 31 -14 19 -14 82 -15 104 -1 6 4 8 -1 4 -12 -5 -16
-4 -16 10 1 15 19 16 19 16 2 0 -15 3 -16 15 -6 9 7 18 10 22 6 3 -3 0 -6 -7
-6 -7 0 -10 -3 -6 -7 3 -4 -4 -13 -16 -20 -13 -7 -17 -12 -10 -13 22 0 2 -20
-20 -20 -15 0 -19 5 -15 20 3 13 0 20 -8 20 -7 0 -15 5 -17 11 -2 7 -11 7 -28
0 l-25 -10 27 0 c30 -1 49 -20 21 -22 -10 -1 -21 -1 -25 0 -7 1 -10 -15 -7
-36 1 -5 6 -6 13 -5 15 5 32 8 89 16 l47 7 0 50 0 49 -120 0 -120 0 -1 -27z"/>
<path d="M1910 1099 c0 -3 35 -7 77 -8 43 -1 75 0 72 4 -8 8 -149 12 -149 4z"/>
<path d="M2090 1094 c38 -8 90 -9 90 -2 0 4 -24 7 -52 7 -29 -1 -46 -3 -38 -5z"/>
<path d="M2190 1088 c0 -4 16 -8 36 -8 21 0 33 4 29 10 -7 12 -65 10 -65 -2z"/>
<path d="M2270 1089 c0 -5 12 -9 28 -10 15 0 40 -2 55 -3 16 -1 31 2 33 6 3 4
-3 8 -13 9 -10 0 -37 2 -60 3 -24 2 -43 0 -43 -5z"/>
<path d="M1917 1068 c-6 -4 17 -7 53 -7 66 1 65 5 -3 11 -20 2 -43 0 -50 -4z"/>
<path d="M2052 1064 c5 -4 43 -9 85 -11 42 -2 74 0 70 3 -4 4 -42 9 -84 11
-43 3 -75 1 -71 -3z"/>
<path d="M489 1037 c4 -4 35 -7 67 -5 l59 3 -67 5 c-37 3 -63 1 -59 -3z"/>
<path d="M975 1010 c-7 -31 -23 -38 -43 -18 -7 7 -12 8 -12 3 0 -6 -4 -4 -8 3
-12 18 -42 4 -42 -20 0 -16 7 -19 43 -18 23 0 66 -2 95 -5 51 -7 52 -6 52 20
0 15 -4 24 -10 20 -6 -3 -13 1 -16 9 -3 9 -16 16 -28 17 -19 1 -19 2 4 9 l25
8 -27 1 c-22 1 -28 -4 -33 -29z m43 -24 c1 -19 -2 -23 -18 -19 -21 6 -28 23
-9 23 5 0 7 5 4 10 -3 6 0 10 7 10 8 0 15 -11 16 -24z"/>
<path d="M1994 1029 c-3 -5 21 -9 53 -10 110 -2 159 -5 171 -13 7 -4 12 -2 12
7 0 10 -16 14 -60 16 -33 1 -85 3 -115 5 -31 2 -58 -1 -61 -5z"/>
<path d="M2240 1019 c0 -3 23 -7 52 -8 28 -1 49 1 45 5 -8 8 -97 11 -97 3z"/>
<path d="M1910 1000 c0 -4 21 -8 46 -8 26 -1 45 0 43 3 -8 8 -89 13 -89 5z"/>
<path d="M2430 980 c0 -24 16 -26 36 -5 8 8 21 12 29 9 18 -7 20 -24 4 -24 -8
0 -8 -5 1 -15 7 -8 22 -14 34 -14 17 1 17 2 4 6 -10 2 -18 8 -18 13 0 16 21
22 35 10 12 -10 15 -9 15 5 0 14 7 16 38 13 20 -3 44 -8 52 -11 15 -7 49 8 40
16 -3 2 -65 7 -137 11 -129 6 -133 5 -133 -14z"/>
<path d="M1910 972 c0 -16 28 -22 107 -22 97 0 90 8 -13 16 -43 3 -82 8 -86
10 -5 3 -8 1 -8 -4z"/>
<path d="M483 953 c26 -2 68 -2 95 0 26 2 4 3 -48 3 -52 0 -74 -1 -47 -3z"/>
<path d="M2576 922 c-7 -39 -10 -42 -34 -38 -16 2 -26 9 -24 17 1 9 -3 7 -12
-4 -16 -21 -38 -19 -48 6 -11 27 -28 20 -28 -12 0 -26 3 -29 39 -33 25 -2 37
0 33 7 -3 5 2 4 11 -4 14 -11 17 -11 17 0 0 9 3 10 8 4 4 -5 12 -11 17 -11 6
-1 38 -5 73 -8 l62 -7 0 38 c-1 36 -2 37 -15 19 -14 -19 -15 -19 -15 5 0 31
-7 39 -26 32 -12 -4 -11 -8 3 -19 12 -9 14 -13 5 -14 -10 0 -9 -5 4 -17 12
-12 13 -18 4 -21 -7 -3 -15 -1 -19 4 -3 5 -15 9 -25 9 -26 0 -31 19 -11 39 9
9 12 16 6 16 -5 0 -11 8 -13 18 -3 9 -8 -2 -12 -26z"/>
<path d="M683 943 c26 -2 68 -2 95 0 26 2 4 3 -48 3 -52 0 -74 -1 -47 -3z"/>
<path d="M260 800 c0 -11 7 -20 15 -20 8 0 15 9 15 20 0 11 -7 20 -15 20 -8 0
-15 -9 -15 -20z"/>
<path d="M2681 816 c2 -2 38 -6 79 -9 44 -3 67 -2 55 3 -19 8 -143 14 -134 6z"/>
<path d="M551 723 c0 -28 2 -54 7 -57 4 -2 6 14 4 37 -5 68 -10 76 -11 20z"/>
<path d="M732 620 c7 -11 23 -20 36 -20 13 0 20 -4 17 -10 -3 -5 -1 -10 4 -10
6 0 11 14 11 30 0 28 -2 30 -40 30 -38 0 -39 -1 -28 -20z"/>
<path d="M144 576 c-3 -8 -4 -36 -1 -63 6 -62 2 -71 -31 -65 -29 6 -52 24 -52
42 0 12 -41 30 -52 23 -14 -8 -8 -22 12 -28 26 -8 36 -28 45 -89 6 -42 4 -48
-9 -43 -9 4 -16 2 -16 -2 0 -5 7 -11 15 -15 24 -9 17 -25 -7 -19 -13 3 -6 -4
15 -15 21 -11 46 -20 55 -20 41 3 97 -15 114 -37 12 -15 25 -22 40 -19 21 4
21 4 3 -5 -19 -8 -19 -9 -1 -16 11 -5 21 -3 26 6 7 11 13 9 31 -6 12 -11 19
-15 16 -9 -14 24 43 22 72 -1 19 -17 51 -27 109 -36 79 -12 84 -12 103 8 l21
20 -47 8 c-26 3 -54 9 -61 12 -8 3 -14 -1 -14 -10 0 -8 6 -18 13 -20 6 -3 4
-6 -7 -6 -10 -1 -29 10 -41 23 -18 20 -38 25 -126 36 -101 12 -162 27 -129 31
8 0 22 1 32 0 19 -2 33 15 19 23 -8 5 -47 10 -136 16 -5 0 -3 6 6 13 17 13 34
77 19 77 -5 0 -16 -7 -25 -16 -13 -13 -13 -19 -3 -32 11 -13 11 -14 -1 -7 -7
4 -23 8 -35 9 -14 1 -20 7 -18 19 2 9 -2 17 -8 17 -17 0 -11 29 9 40 27 14 53
13 89 -5 20 -10 29 -21 25 -30 -3 -10 2 -15 13 -16 14 -1 12 -3 -6 -8 -19 -6
-4 -11 63 -20 48 -7 90 -17 93 -22 3 -5 -8 -7 -23 -4 -15 3 -55 9 -87 15 -46
8 -62 7 -67 -2 -5 -7 -7 -13 -6 -14 1 -1 42 -4 92 -7 50 -3 102 -10 116 -16
15 -5 36 -7 47 -4 11 2 28 0 38 -5 11 -5 28 -6 39 -2 11 4 34 1 52 -7 18 -7
46 -13 63 -13 17 0 29 -4 25 -10 -10 -16 6 -60 22 -60 11 0 13 3 5 13 -6 6
-12 25 -14 42 -2 24 -9 31 -33 35 -16 3 -28 10 -25 15 3 6 -6 11 -20 13 -19 2
-22 1 -10 -7 20 -14 9 -20 -17 -10 -24 9 -32 52 -13 64 6 4 10 3 9 -2 -4 -25
4 -24 16 2 14 30 14 30 9 3 -5 -23 -2 -29 20 -38 14 -5 26 -14 26 -20 0 -5 8
-10 18 -10 14 0 15 2 2 10 -12 7 -12 10 4 16 18 7 18 8 1 20 -9 7 -14 18 -10
24 9 15 -12 30 -42 30 -13 0 -23 5 -23 10 0 12 25 13 65 2 40 -12 54 -6 48 19
-5 17 -2 20 13 17 10 -2 18 -11 18 -20 -1 -13 6 -16 34 -13 19 2 38 7 41 12 3
5 21 16 39 24 17 8 32 16 32 19 0 3 -46 6 -103 7 -62 2 -97 -1 -88 -6 8 -5
-11 -7 -51 -4 -54 5 -65 3 -65 -10 0 -9 5 -13 10 -10 6 4 8 -3 4 -18 -4 -13
-7 -28 -7 -32 0 -4 -9 -3 -19 2 -14 8 -20 7 -25 -5 -3 -8 -2 -12 4 -9 16 10
12 -7 -10 -43 -22 -37 -40 -42 -40 -11 0 16 -4 19 -21 14 -16 -5 -19 -4 -14 5
5 8 1 18 -10 27 -18 13 -18 13 1 14 10 1 22 1 27 0 4 0 7 3 7 9 0 10 -18 15
-95 25 -49 7 -50 7 -32 -13 14 -15 15 -21 5 -25 -22 -7 -50 12 -43 32 4 13 -2
17 -27 19 -18 2 -55 6 -82 10 l-49 7 2 73 c2 68 -3 89 -15 58z m646 -126 c24
-8 24 -8 -5 -8 -16 0 -41 4 -55 8 -24 8 -24 8 5 8 17 0 41 -4 55 -8z m-408
-95 c26 -4 50 -11 54 -17 4 -6 -1 -8 -12 -5 -11 3 -52 9 -91 13 -40 4 -73 11
-73 15 0 5 17 7 38 4 20 -2 58 -7 84 -10z m88 -45 c0 -12 -24 -12 -60 0 -21 7
-19 8 18 9 23 1 42 -3 42 -9z"/>
<path d="M215 579 l-50 -6 46 -1 c45 -2 46 -2 41 -34 -3 -25 -2 -30 8 -22 6 6
10 24 8 40 -3 29 -4 29 -53 23z"/>
<path d="M2840 521 c0 -41 3 -72 6 -68 10 10 12 114 3 129 -5 8 -9 -18 -9 -61z"/>
<path d="M1610 570 c0 -6 7 -10 17 -10 30 0 516 -50 588 -60 39 -6 84 -10 101
-10 17 0 93 -6 169 -15 75 -8 139 -15 141 -15 2 0 3 12 3 28 -2 24 -2 25 -6 4
-4 -19 -9 -23 -27 -18 -29 7 -197 26 -273 30 -73 5 -321 31 -473 51 -169 21
-240 26 -240 15z"/>
<path d="M982 505 c3 -4 62 -9 130 -12 67 -3 121 -3 118 0 -8 7 -256 20 -248
12z"/>
<path d="M263 477 c0 -28 17 -34 122 -43 33 -3 66 -7 73 -10 17 -5 92 18 92
29 0 10 -14 14 -80 22 -44 5 -53 4 -42 -6 16 -17 15 -26 -3 -26 -8 0 -17 8
-20 18 -6 17 -19 22 -101 34 -39 6 -41 5 -41 -18z"/>
<path d="M1271 448 c1 -55 5 -50 11 15 2 20 0 37 -4 37 -4 0 -7 -24 -7 -52z"/>
<path d="M1507 490 c34 -5 71 -14 83 -20 11 -6 25 -8 30 -5 19 11 10 22 -17
23 -16 0 -57 2 -93 5 l-65 6 62 -9z"/>
<path d="M1667 477 c-12 -8 -16 -21 -13 -37 2 -14 5 -28 5 -31 1 -3 15 -6 31
-6 27 0 30 4 30 32 0 28 -15 55 -30 55 -3 0 -14 -6 -23 -13z"/>
<path d="M1825 454 c50 -8 110 -17 135 -19 25 -3 56 -7 68 -10 13 -3 33 -3 45
1 14 5 -33 14 -128 25 -178 21 -247 23 -120 3z"/>
<path d="M1155 440 c-3 -6 -10 -8 -14 -6 -12 8 -32 -10 -35 -30 -2 -10 -10
-20 -19 -22 -12 -2 -15 1 -11 12 4 12 0 16 -15 16 -15 0 -21 -7 -22 -22 -1
-21 -2 -21 -6 -3 -7 26 -21 35 -61 35 -32 0 -32 -1 -17 -23 8 -13 13 -26 10
-29 -3 -3 19 -9 50 -13 43 -5 62 -3 80 9 13 9 31 16 40 16 9 0 18 6 21 14 3 8
12 12 20 9 18 -7 18 21 0 36 -10 8 -16 9 -21 1z"/>
<path d="M854 416 c-10 -8 -16 -18 -12 -22 4 -4 14 -1 22 5 11 9 16 9 23 -1
10 -16 53 -41 60 -35 2 3 -3 16 -11 29 -9 14 -14 27 -11 29 12 12 -54 7 -71
-5z"/>
<path d="M2107 419 c7 -7 21 -7 44 -1 l34 10 -44 1 c-32 1 -42 -2 -34 -10z"/>
<path d="M1730 411 c0 -4 71 -15 158 -25 86 -10 173 -20 192 -22 436 -50 438
-51 446 -30 4 10 2 22 -5 29 -8 8 -11 5 -11 -11 0 -26 6 -26 -145 -7 -66 8
-223 26 -350 40 -126 14 -242 27 -257 30 -16 2 -28 1 -28 -4z"/>
<path d="M2195 410 c7 -11 75 -10 75 2 0 4 -18 8 -41 8 -23 0 -38 -4 -34 -10z"/>
<path d="M1624 385 c-3 -13 -10 -22 -15 -19 -16 10 -9 -20 10 -43 25 -30 33
-29 21 3 -14 35 -12 41 5 18 14 -18 14 -18 15 9 0 16 -7 35 -15 43 -13 13 -15
12 -21 -11z"/>
<path d="M2280 400 c0 -5 15 -10 34 -10 19 0 38 5 41 10 4 6 -10 10 -34 10
-23 0 -41 -4 -41 -10z"/>
<path d="M8 395 c-12 -21 -3 -98 12 -103 13 -5 13 -3 1 11 -10 13 -11 21 -3
30 7 8 8 24 4 42 -5 16 -11 25 -14 20z"/>
<path d="M2370 390 c0 -6 16 -8 36 -5 52 6 55 15 6 15 -23 0 -42 -4 -42 -10z"/>
<path d="M683 379 c-16 -7 -15 -8 5 -8 24 -1 28 -11 10 -29 -6 -6 -10 -14 -7
-16 2 -3 14 11 26 29 21 32 21 34 4 32 -11 0 -28 -4 -38 -8z"/>
<path d="M780 380 c0 -5 9 -15 20 -22 23 -15 28 -50 6 -42 -8 3 -13 11 -10 19
3 7 -2 15 -10 18 -9 4 -16 2 -16 -3 0 -5 -7 -7 -15 -4 -8 4 -15 2 -15 -4 0 -5
11 -13 24 -16 14 -3 28 -15 31 -26 6 -20 7 -20 27 5 11 15 18 34 15 45 -7 27
-3 25 18 -6 17 -26 17 -27 -14 -53 l-30 -26 27 -1 c15 0 59 -4 97 -7 78 -8 56
6 -30 19 -27 4 -43 9 -33 11 9 2 45 0 81 -5 l64 -8 11 30 c7 16 11 30 9 31 -1
1 -41 7 -89 13 -47 7 -99 19 -115 27 -33 17 -53 19 -53 5z"/>
<path d="M1190 380 c0 -6 -14 -10 -31 -10 -17 0 -37 -7 -45 -15 -14 -13 -11
-15 26 -15 28 0 39 4 34 11 -5 9 3 10 29 5 23 -4 38 -2 43 5 7 11 70 7 107 -7
9 -3 17 -2 17 4 0 13 -36 21 -117 27 -37 2 -63 0 -63 -5z"/>
<path d="M1735 340 c3 -5 0 -10 -7 -11 -7 0 -3 -5 9 -11 13 -6 25 -18 28 -27
4 -13 20 -16 79 -16 49 -1 80 -6 91 -15 16 -14 17 -13 10 10 -10 34 -5 31 -87
40 -82 10 -110 18 -102 31 3 5 -2 9 -11 9 -9 0 -13 -4 -10 -10z"/>
<path d="M1810 341 c0 -13 27 -20 70 -19 66 0 80 -9 80 -54 0 -24 4 -28 29
-28 16 0 38 -3 48 -6 16 -6 16 -5 -2 10 -19 16 -18 16 33 12 60 -4 70 -10 53
-30 -9 -11 -7 -14 13 -18 22 -4 23 -2 19 26 -3 17 -10 34 -16 38 -5 3 -46 9
-89 13 -43 4 -81 11 -84 16 -3 5 1 9 8 9 26 0 187 -29 198 -35 5 -3 10 0 10 7
0 10 2 10 9 -1 5 -7 6 -22 3 -33 -3 -13 -7 -16 -12 -8 -5 9 -9 9 -14 1 -10
-15 0 -18 159 -40 119 -16 141 -17 148 -5 12 22 62 44 98 44 104 0 -72 25
-586 85 -71 8 -140 17 -152 20 -13 3 -23 1 -23 -4z m484 -79 c23 5 26 2 26
-21 0 -14 -4 -21 -8 -16 -11 16 -44 18 -53 3 -6 -8 -9 -1 -9 22 0 24 3 31 9
21 5 -8 19 -12 35 -9z m129 -18 c24 4 27 1 27 -22 0 -21 -2 -24 -10 -12 -5 8
-10 11 -10 7 0 -4 -9 -3 -20 3 -15 8 -20 8 -20 -1 0 -8 -4 -8 -15 1 -8 7 -15
9 -15 5 0 -4 -7 -1 -17 6 -14 13 -13 15 13 19 16 3 32 2 35 -3 3 -4 18 -6 32
-3z"/>
<path d="M1136 303 c7 -16 14 -34 14 -40 0 -7 7 -13 15 -13 8 0 15 -4 15 -10
0 -6 -9 -6 -25 0 -15 6 -26 6 -30 0 -3 -5 6 -12 20 -16 13 -3 22 -10 19 -15
-3 -5 -9 -7 -14 -4 -5 3 -12 0 -16 -6 -3 -6 -2 -14 3 -18 6 -3 12 -34 15 -69
3 -47 10 -68 26 -85 24 -23 30 -10 11 24 -6 12 -12 48 -14 82 -3 74 12 110 61
139 19 11 34 25 34 31 0 6 -3 7 -7 4 -3 -4 -13 -1 -21 6 -9 6 -13 7 -10 2 7
-12 1 -24 -24 -43 -13 -10 -22 -11 -38 -2 -21 11 -21 12 -3 25 21 15 18 20
-19 29 -27 6 -27 6 -12 -21z"/>
<path d="M1706 286 c5 -22 4 -27 -6 -21 -8 5 -11 3 -8 -6 3 -8 15 -15 27 -17
20 -3 22 0 16 20 -4 13 -14 30 -22 38 -13 13 -13 12 -7 -14z"/>
<path d="M1295 290 c-15 -7 -9 -9 25 -9 33 -1 41 2 30 9 -18 12 -28 12 -55 0z"/>
<path d="M1440 280 c0 -5 5 -12 10 -15 6 -3 10 -17 10 -29 0 -20 6 -25 34 -28
19 -2 32 0 30 4 -3 4 -16 8 -30 8 -21 0 -24 4 -23 33 1 17 3 24 6 15 2 -10 10
-15 19 -11 9 3 25 1 37 -5 12 -5 31 -13 42 -17 20 -6 20 -6 0 -17 -11 -6 -25
-16 -30 -23 -8 -9 -23 -11 -53 -5 -23 4 -42 4 -42 -1 0 -10 23 -16 98 -24 38
-4 65 -12 69 -20 2 -8 11 -11 19 -8 8 3 22 -3 30 -13 9 -11 13 -13 9 -6 -4 7
-2 19 4 26 13 15 2 19 -81 31 -26 4 -46 11 -43 15 2 4 16 5 29 3 20 -4 29 2
45 28 32 53 29 58 -41 56 -35 -1 -82 1 -105 5 -25 4 -43 3 -43 -2z"/>
<path d="M740 266 c0 -8 -2 -20 -5 -28 -4 -9 5 -14 25 -15 16 -1 30 2 30 7 0
6 -9 10 -20 10 -11 0 -20 5 -20 10 0 6 5 10 10 10 6 0 10 5 10 10 0 6 -7 10
-15 10 -8 0 -15 -6 -15 -14z"/>
<path d="M1106 273 c-4 -4 -19 -7 -34 -8 -20 0 -26 -5 -24 -18 2 -14 -2 -16
-22 -11 -21 5 -26 2 -26 -12 0 -12 -3 -15 -8 -7 -8 13 -120 36 -133 27 -20
-12 -6 -23 39 -29 26 -4 58 -10 72 -15 l25 -8 -26 -1 c-14 -1 -47 2 -73 5 -41
6 -47 10 -55 38 l-9 31 -2 -40 c-1 -22 -4 -34 -7 -27 -9 23 -20 12 -15 -17 4
-28 8 -30 56 -35 28 -4 71 -7 96 -9 l45 -2 -3 -45 c-1 -25 -4 -55 -7 -68 -4
-17 -1 -22 14 -22 15 0 21 9 26 39 12 72 40 74 66 6 8 -22 22 -41 31 -43 15
-3 14 1 -3 35 -23 45 -24 62 -4 69 28 11 15 20 -32 23 -26 1 -51 5 -57 8 -5 4
-50 10 -98 14 -49 4 -92 10 -95 13 -13 13 5 14 47 4 33 -9 45 -9 48 0 2 7 23
12 46 12 42 0 76 21 76 48 0 7 3 11 8 10 12 -3 62 24 62 34 0 10 -14 11 -24 1z"/>
<path d="M85 250 c-3 -11 0 -32 7 -47 10 -22 22 -29 55 -34 26 -3 40 -2 36 5
-4 5 0 7 9 4 8 -4 21 -2 29 4 10 7 3 8 -23 4 -23 -3 -38 -1 -38 6 0 6 -9 8
-19 5 -11 -3 -22 1 -25 8 -3 8 6 14 24 17 16 3 31 1 32 -2 2 -4 20 -10 41 -14
47 -9 42 9 -4 19 -22 5 -28 10 -18 15 13 9 4 12 -68 24 -26 4 -33 1 -38 -14z"/>
<path d="M477 254 c-12 -12 -8 -21 13 -27 13 -3 20 -14 21 -29 l0 -23 10 23
c8 22 12 23 69 16 50 -5 60 -4 60 8 0 9 -13 18 -32 23 -52 11 -133 16 -141 9z"/>
<path d="M1826 238 c-8 -12 -12 -26 -9 -31 3 -6 10 -1 14 10 4 12 16 26 26 32
16 9 16 10 1 11 -9 0 -24 -10 -32 -22z"/>
<path d="M1976 198 c18 -35 18 -48 -1 -48 -8 0 -19 -9 -25 -19 -13 -25 -13
-40 1 -21 8 11 9 6 4 -20 -6 -33 -5 -34 10 -16 23 29 19 -2 -5 -42 -11 -17
-16 -32 -11 -32 5 0 12 8 16 18 7 16 8 15 15 -3 6 -14 9 -5 9 32 1 42 5 54 22
63 30 17 34 6 22 -53 -6 -28 -9 -54 -8 -55 2 -2 13 6 24 17 23 23 27 70 10
104 -15 29 -45 57 -53 50 -3 -4 -6 1 -6 10 0 9 7 20 16 25 13 8 9 10 -19 14
l-35 4 14 -28z"/>
<path d="M2550 207 c0 -13 -5 -28 -12 -35 -6 -6 -12 -42 -13 -78 -2 -66 -2
-67 13 -38 8 16 16 52 16 79 1 44 4 50 24 53 31 5 35 -14 17 -89 -18 -79 -19
-99 -2 -99 10 0 14 16 14 53 1 58 11 116 24 133 6 7 1 18 -13 30 -19 16 -20
16 -9 2 12 -16 11 -18 -14 -18 -23 0 -26 2 -15 15 10 13 9 15 -9 15 -15 0 -21
-6 -21 -23z"/>
<path d="M1710 168 c-15 -34 -18 -52 -11 -70 9 -22 10 -21 10 8 1 17 8 45 17
63 9 18 13 35 10 38 -3 3 -15 -14 -26 -39z"/>
<path d="M2203 171 c-1 -11 6 -21 18 -24 19 -5 27 -27 9 -27 -6 0 -6 -9 -1
-22 5 -13 5 -32 1 -43 -7 -20 -2 -55 8 -55 3 0 13 7 23 16 26 24 15 110 -19
147 -30 32 -37 33 -39 8z"/>
<path d="M2873 160 c-6 -17 -8 -28 -3 -25 5 3 10 -1 13 -7 2 -7 6 4 8 25 6 45
-2 48 -18 7z"/>
<path d="M700 173 c0 -5 -10 -8 -22 -6 -22 3 -57 -11 -48 -20 3 -3 36 -8 74
-12 57 -6 67 -5 61 6 -4 8 1 5 12 -6 11 -11 18 -26 15 -32 -2 -7 0 -13 5 -13
14 0 69 -52 76 -73 4 -11 17 -17 37 -17 34 0 38 9 13 31 -10 9 -31 33 -46 53
-21 28 -33 35 -48 31 -15 -5 -22 0 -29 22 -11 31 -48 42 -62 20 -6 -9 -12 -7
-23 7 -8 11 -15 15 -15 9z"/>
<path d="M247 147 c3 -5 14 -7 24 -4 10 3 22 1 25 -4 8 -14 46 -11 42 3 -3 7
-24 13 -51 13 -25 1 -43 -3 -40 -8z"/>
<path d="M396 151 c-7 -10 19 -34 40 -37 19 -3 18 10 -4 29 -21 19 -28 21 -36
8z"/>
<path d="M1450 153 c0 -5 18 -26 39 -47 38 -37 39 -38 64 -21 28 18 49 13 40
-10 -4 -11 2 -15 21 -15 14 0 26 -4 26 -9 0 -5 6 -11 14 -14 9 -4 13 3 12 22
-1 28 -24 39 -38 18 -3 -6 -9 6 -13 25 -6 33 -11 37 -46 42 -21 3 -57 9 -79
12 -22 3 -40 2 -40 -3z"/>
<path d="M2387 148 c-17 -6 -29 -19 -33 -36 -3 -15 -8 -34 -10 -43 -8 -28 14
-69 36 -69 11 0 20 7 20 15 0 8 6 29 14 47 7 18 18 48 24 66 12 36 2 40 -51
20z"/>
<path d="M485 122 c16 -18 36 -32 43 -32 7 0 20 -6 28 -14 7 -8 23 -12 34 -9
11 3 20 1 20 -3 0 -5 10 -15 23 -23 l22 -14 -23 25 c-20 22 -21 27 -8 37 20
16 110 5 131 -16 13 -13 15 -12 15 7 0 26 -2 27 -135 44 -60 8 -126 18 -145
22 l-35 7 30 -31z"/>
<path d="M1430 115 c0 -16 -4 -23 -14 -19 -7 3 -16 -2 -19 -10 -4 -9 -2 -16 4
-16 6 0 8 -9 4 -21 -5 -15 -4 -19 4 -15 6 4 11 15 11 24 1 25 27 55 40 47 7
-4 9 -17 5 -34 -15 -55 -14 -71 5 -71 10 0 28 8 41 19 20 16 21 21 10 35 -7 9
-20 16 -27 16 -8 0 -14 6 -14 13 0 7 -11 23 -25 35 l-25 22 0 -25z"/>
<path d="M2753 102 c-2 -37 14 -54 37 -42 15 8 20 6 25 -10 5 -16 10 -18 25
-10 10 6 28 10 39 10 12 0 21 5 21 10 0 6 -7 10 -16 10 -8 0 -12 5 -9 10 10
17 -15 40 -42 40 l-24 0 21 -22 c11 -12 20 -28 20 -35 0 -20 -21 -15 -27 6 -3
11 -11 22 -18 25 -9 3 -12 0 -8 -10 6 -15 -5 -18 -25 -6 -7 5 -10 16 -7 24 4
9 3 18 -2 21 -4 3 -9 -7 -10 -21z"/>
<path d="M0 109 c0 -5 7 -9 16 -9 8 0 13 -4 10 -9 -7 -10 19 -23 28 -14 12 12
5 21 -24 32 -18 6 -30 6 -30 0z"/>
<path d="M230 85 c7 -8 16 -13 20 -10 10 6 25 -13 38 -50 8 -22 11 -25 11 -10
2 34 -39 85 -68 85 -11 0 -11 -3 -1 -15z"/>
<path d="M344 87 c11 -7 39 -29 63 -51 24 -21 43 -33 43 -27 0 17 -41 56 -78
75 -36 18 -56 21 -28 3z"/>
<path d="M2492 79 c-16 -44 -22 -79 -14 -79 5 0 14 21 19 47 12 52 9 70 -5 32z"/>
<path d="M2905 83 c3 -10 9 -30 12 -45 3 -15 11 -29 18 -32 10 -3 12 2 8 17
-2 12 -6 29 -7 37 -3 22 -15 40 -28 40 -6 0 -7 -8 -3 -17z"/>
<path d="M1680 42 c0 -12 7 -25 15 -29 25 -9 27 2 6 28 l-20 24 -1 -23z"/>
<path d="M2688 55 c-8 -9 3 -55 14 -55 5 0 6 4 3 10 -3 5 -2 10 3 10 6 0 8 9
5 20 -5 20 -15 25 -25 15z"/>
<path d="M1545 40 c-3 -6 1 -7 10 -4 11 5 18 0 22 -15 3 -13 13 -21 27 -21 28
0 36 8 29 26 -4 12 -8 12 -20 2 -12 -10 -17 -9 -24 5 -11 19 -34 23 -44 7z"/>
<path d="M2773 35 c-3 -9 -3 -19 1 -22 8 -9 37 18 30 28 -8 14 -24 11 -31 -6z"/>
<path d="M2825 10 c28 -12 85 -12 85 0 0 6 -24 10 -52 9 -39 0 -48 -3 -33 -9z"/>
</g>
</svg>
